<svg xmlns="http://www.w3.org/2000/svg" version="1.1" xmlns:xlink="http://www.w3.org/1999/xlink" xmlns:svgjs="http://svgjs.dev/svgjs" width="1000" height="1657" viewBox="0 0 1000 1657"><g transform="matrix(1,0,0,1,0.9616305137804488,0.6708675844104164)"><svg viewBox="0 0 149 247" data-background-color="#ffffff" preserveAspectRatio="xMidYMid meet" height="1657" width="1000" xmlns="http://www.w3.org/2000/svg" xmlns:xlink="http://www.w3.org/1999/xlink"><g id="tight-bounds" transform="matrix(1,0,0,1,-0.14328294655328477,-0.09999740896236631)"><svg viewBox="0 0 149.28656589310657 247.2" height="247.2" width="149.28656589310657"><g><svg viewBox="0 0 321.9020742857142 533.0298294918642" height="247.2" width="149.28656589310657"><g><rect width="321.9020742857142" height="22.292751110399998" x="0" y="205.17909118146426" fill="#233565" opacity="1" stroke-width="0" stroke="transparent" fill-opacity="1" class="rect-o-0" data-fill-palette-color="secondary" rx="1%" id="o-0" data-palette-color="#233565"></rect></g><g transform="matrix(1,0,0,1,0.8007514285714024,285.82982949186425)"><svg viewBox="0 0 320.3005714285714 247.2" height="247.2" width="320.3005714285714"><g id="textblocktransform"><svg viewBox="0 0 320.3005714285714 247.2" height="247.2" width="320.3005714285714" id="textblock"><g><svg viewBox="0 0 320.3005714285714 247.2" height="247.2" width="320.3005714285714"><g transform="matrix(1,0,0,1,0,0)"><svg width="320.3005714285714" viewBox="1.75 -35 45.349998474121094 35" height="247.2" data-palette-color="#233565"><path d="M11.2-9L11.2-9 11.2-30.6 1.9-30.6 1.9-35 15.9-35 15.9-8.35Q15.9-4.65 13.55-2.4L13.55-2.4Q11.95-0.9 9.95-0.45 7.95 0 5.05 0L5.05 0 1.75 0 1.75-4.4 5.7-4.4Q11.2-4.4 11.2-9ZM38.8-4.4L38.8-4.4 42.4-4.4 42.4-14.9 37.25-14.9 37.25-19.3 47.1-19.3 47.1 0 39.4 0Q31.35 0 26.77-4.58 22.2-9.15 22.15-17.5L22.15-17.5Q22.2-25.85 26.77-30.43 31.35-35 39.4-35L39.4-35 45.15-35 45.15-30.6 38.8-30.6Q33.25-30.6 30.27-26.93 27.3-23.25 27.2-17.5L27.2-17.5Q27.3-11.75 30.27-8.08 33.25-4.4 38.8-4.4Z" opacity="1" transform="matrix(1,0,0,1,0,0)" fill="#233565" class="wordmark-text-0" data-fill-palette-color="primary" id="text-0"></path></svg></g></svg></g></svg></g></svg></g><g transform="matrix(1,0,0,1,61.978160571428546,0)"><svg viewBox="0 0 197.94575314285711 146.82110398146426" height="146.82110398146426" width="197.94575314285711"><g><svg xmlns="http://www.w3.org/2000/svg" xmlns:xlink="http://www.w3.org/1999/xlink" version="1.1" x="8" y="0" viewBox="27.993000030517578 33.02300262451172 42.7349967956543 34.48500061035156" enable-background="new 0 0 100 100" xml:space="preserve" height="146.82110398146426" width="181.94575314285711" class="icon-icon-0" data-fill-palette-color="accent" id="icon-0"><path d="M27.993 35.58l7.305 7.303-7.305 7.306 2.557 2.557 9.863-9.862-9.863-9.861L27.993 35.58zM42.148 47.975v3.617h28.58v-3.617H42.148zM42.148 59.55h28.58v-3.617h-28.58V59.55zM42.148 67.508h14.29v-3.617h-14.29V67.508z" fill="#8bd8bc" data-fill-palette-color="accent"></path></svg></g></svg></g><g></g></svg></g><defs></defs></svg><rect width="149.28656589310657" height="247.2" fill="none" stroke="none" visibility="hidden"></rect></g></svg></g></svg>